<svg xmlns="http://www.w3.org/2000/svg" width="14.557" height="16.175" viewBox="0 0 14.557 16.175">
  <path id="cart-icon" d="M1,.809A.811.811,0,0,1,1.812,0H3.029A1.215,1.215,0,0,1,4.246,1.213v.453L14.415,2.4a1.216,1.216,0,0,1,1.13,1.383l-.7,4.88a1.216,1.216,0,0,1-1.2,1.042H4.246v1.617h8.122a2.423,2.423,0,1,1-2.3,1.617H5.731a2.436,2.436,0,1,1-3.108-1.48V1.617H1.812A.81.81,0,0,1,1,.809Zm10.557,12.94a.812.812,0,1,1,.811.809A.81.81,0,0,1,11.557,13.749Zm-8.934,0a.812.812,0,1,1,.812.809.811.811,0,0,1-.812-.809Z" transform="translate(-1)" fill="#533174" fill-rule="evenodd"/>
</svg>
